<svg width="24" height="24" viewBox="0 0 24 24" fill="none" xmlns="http://www.w3.org/2000/svg">
<path d="M20.94 17.52L17.94 4.52C17.5 2.79 14.64 2 12 2C9.36001 2 6.50001 2.79 6.06001 4.57L3.06001 17.5C3.01973 17.6636 2.99958 17.8315 3.00001 18C3.00001 20.63 7.53001 22 12 22C16.47 22 21 20.63 21 18C21.0004 17.8381 20.9803 17.6768 20.94 17.52Z" fill="#652D90"/>
<path d="M12 8C15.3137 8 18 6.65685 18 5C18 3.34315 15.3137 2 12 2C8.68629 2 6 3.34315 6 5C6 6.65685 8.68629 8 12 8Z" fill="#F6921E"/>
</svg>
